<svg xmlns="http://www.w3.org/2000/svg" width="888" height="158" viewBox="0 0 888 158" font-family="-apple-system,Segoe UI,Helvetica,Arial,sans-serif">
<style>
  text.lbl { fill:#7d8590; font-size:13px; font-weight:600; }
  text.total { fill:#e6edf3; font-size:15px; font-weight:700; }
  .c { transform-box:fill-box; transform-origin:center; opacity:0; animation:pop 0.55s ease-out both; }
  .g { animation:pop 0.55s ease-out both, flash 0.7000000000000001s ease-out both; }
  @keyframes pop { 0%{opacity:0;transform:scale(.2)} 60%{opacity:1;transform:scale(1.1)} 100%{opacity:1;transform:scale(1)} }
  @keyframes flash { 0%{filter:brightness(2.4)} 45%{filter:brightness(2.4)} 100%{filter:brightness(1)} }
  @media (prefers-reduced-motion: reduce) { .c { opacity:1 !important; animation:none !important; } }
</style>
<rect width="888" height="158" fill="none"/>
<text class="lbl" x="34" y="16">Sep</text><text class="lbl" x="66" y="16">Oct</text><text class="lbl" x="130" y="16">Nov</text><text class="lbl" x="210" y="16">Dec</text><text class="lbl" x="274" y="16">Jan</text><text class="lbl" x="338" y="16">Feb</text><text class="lbl" x="402" y="16">Mar</text><text class="lbl" x="482" y="16">Apr</text><text class="lbl" x="546" y="16">May</text><text class="lbl" x="626" y="16">Jun</text><text class="lbl" x="690" y="16">Jul</text><text class="lbl" x="754" y="16">Aug</text><text class="lbl" x="834" y="16">Sep</text><text class="lbl" x="2" y="51">Mon</text><text class="lbl" x="2" y="83">Wed</text><text class="lbl" x="2" y="115">Fri</text>
<rect class="c g" x="34" y="24" width="13" height="13" rx="2.5" fill="#0a3069" style="animation-delay:0.0s"/><rect class="c e" x="34" y="40" width="13" height="13" rx="2.5" fill="#161b22" style="animation-delay:0.036s"/><rect class="c g" x="34" y="56" width="13" height="13" rx="2.5" fill="#0a3069" style="animation-delay:0.072s"/><rect class="c g" x="34" y="72" width="13" height="13" rx="2.5" fill="#0a3069" style="animation-delay:0.107s"/><rect class="c g" x="34" y="88" width="13" height="13" rx="2.5" fill="#0a3069" style="animation-delay:0.143s"/><rect class="c e" x="34" y="104" width="13" height="13" rx="2.5" fill="#161b22" style="animation-delay:0.179s"/><rect class="c g" x="34" y="120" width="13" height="13" rx="2.5" fill="#0a3069" style="animation-delay:0.215s"/><rect class="c e" x="50" y="24" width="13" height="13" rx="2.5" fill="#161b22" style="animation-delay:0.065s"/><rect class="c g" x="50" y="40" width="13" height="13" rx="2.5" fill="#0a3069" style="animation-delay:0.101s"/><rect class="c e" x="50" y="56" width="13" height="13" rx="2.5" fill="#161b22" style="animation-delay:0.137s"/><rect class="c e" x="50" y="72" width="13" height="13" rx="2.5" fill="#161b22" style="animation-delay:0.173s"/><rect class="c g" x="50" y="88" width="13" height="13" rx="2.5" fill="#0a3069" style="animation-delay:0.208s"/><rect class="c g" x="50" y="104" width="13" height="13" rx="2.5" fill="#0a3069" style="animation-delay:0.244s"/><rect class="c e" x="50" y="120" width="13" height="13" rx="2.5" fill="#161b22" style="animation-delay:0.28s"/><rect class="c e" x="66" y="24" width="13" height="13" rx="2.5" fill="#161b22" style="animation-delay:0.13s"/><rect class="c e" x="66" y="40" width="13" height="13" rx="2.5" fill="#161b22" style="animation-delay:0.166s"/><rect class="c e" x="66" y="56" width="13" height="13" rx="2.5" fill="#161b22" style="animation-delay:0.202s"/><rect class="c g" x="66" y="72" width="13" height="13" rx="2.5" fill="#0a3069" style="animation-delay:0.238s"/><rect class="c g" x="66" y="88" width="13" height="13" rx="2.5" fill="#0a3069" style="animation-delay:0.273s"/><rect class="c g" x="66" y="104" width="13" height="13" rx="2.5" fill="#0a3069" style="animation-delay:0.309s"/><rect class="c e" x="66" y="120" width="13" height="13" rx="2.5" fill="#161b22" style="animation-delay:0.345s"/><rect class="c e" x="82" y="24" width="13" height="13" rx="2.5" fill="#161b22" style="animation-delay:0.195s"/><rect class="c e" x="82" y="40" width="13" height="13" rx="2.5" fill="#161b22" style="animation-delay:0.231s"/><rect class="c g" x="82" y="56" width="13" height="13" rx="2.5" fill="#0a3069" style="animation-delay:0.267s"/><rect class="c e" x="82" y="72" width="13" height="13" rx="2.5" fill="#161b22" style="animation-delay:0.303s"/><rect class="c e" x="82" y="88" width="13" height="13" rx="2.5" fill="#161b22" style="animation-delay:0.339s"/><rect class="c g" x="82" y="104" width="13" height="13" rx="2.5" fill="#0a3069" style="animation-delay:0.374s"/><rect class="c e" x="82" y="120" width="13" height="13" rx="2.5" fill="#161b22" style="animation-delay:0.41s"/><rect class="c g" x="98" y="24" width="13" height="13" rx="2.5" fill="#0a3069" style="animation-delay:0.26s"/><rect class="c e" x="98" y="40" width="13" height="13" rx="2.5" fill="#161b22" style="animation-delay:0.296s"/><rect class="c e" x="98" y="56" width="13" height="13" rx="2.5" fill="#161b22" style="animation-delay:0.332s"/><rect class="c e" x="98" y="72" width="13" height="13" rx="2.5" fill="#161b22" style="animation-delay:0.368s"/><rect class="c e" x="98" y="88" width="13" height="13" rx="2.5" fill="#161b22" style="animation-delay:0.404s"/><rect class="c g" x="98" y="104" width="13" height="13" rx="2.5" fill="#0a3069" style="animation-delay:0.439s"/><rect class="c g" x="98" y="120" width="13" height="13" rx="2.5" fill="#0a3069" style="animation-delay:0.475s"/><rect class="c g" x="114" y="24" width="13" height="13" rx="2.5" fill="#0a3069" style="animation-delay:0.325s"/><rect class="c g" x="114" y="40" width="13" height="13" rx="2.5" fill="#0969da" style="animation-delay:0.361s"/><rect class="c g" x="114" y="56" width="13" height="13" rx="2.5" fill="#0a3069" style="animation-delay:0.397s"/><rect class="c g" x="114" y="72" width="13" height="13" rx="2.5" fill="#0969da" style="animation-delay:0.433s"/><rect class="c g" x="114" y="88" width="13" height="13" rx="2.5" fill="#0a3069" style="animation-delay:0.469s"/><rect class="c e" x="114" y="104" width="13" height="13" rx="2.5" fill="#161b22" style="animation-delay:0.505s"/><rect class="c g" x="114" y="120" width="13" height="13" rx="2.5" fill="#0a3069" style="animation-delay:0.54s"/><rect class="c e" x="130" y="24" width="13" height="13" rx="2.5" fill="#161b22" style="animation-delay:0.391s"/><rect class="c g" x="130" y="40" width="13" height="13" rx="2.5" fill="#0a3069" style="animation-delay:0.426s"/><rect class="c e" x="130" y="56" width="13" height="13" rx="2.5" fill="#161b22" style="animation-delay:0.462s"/><rect class="c e" x="130" y="72" width="13" height="13" rx="2.5" fill="#161b22" style="animation-delay:0.498s"/><rect class="c e" x="130" y="88" width="13" height="13" rx="2.5" fill="#161b22" style="animation-delay:0.534s"/><rect class="c g" x="130" y="104" width="13" height="13" rx="2.5" fill="#0a3069" style="animation-delay:0.57s"/><rect class="c e" x="130" y="120" width="13" height="13" rx="2.5" fill="#161b22" style="animation-delay:0.605s"/><rect class="c g" x="146" y="24" width="13" height="13" rx="2.5" fill="#0a3069" style="animation-delay:0.456s"/><rect class="c g" x="146" y="40" width="13" height="13" rx="2.5" fill="#0a3069" style="animation-delay:0.492s"/><rect class="c g" x="146" y="56" width="13" height="13" rx="2.5" fill="#0a3069" style="animation-delay:0.527s"/><rect class="c e" x="146" y="72" width="13" height="13" rx="2.5" fill="#161b22" style="animation-delay:0.563s"/><rect class="c e" x="146" y="88" width="13" height="13" rx="2.5" fill="#161b22" style="animation-delay:0.599s"/><rect class="c g" x="146" y="104" width="13" height="13" rx="2.5" fill="#0a3069" style="animation-delay:0.635s"/><rect class="c e" x="146" y="120" width="13" height="13" rx="2.5" fill="#161b22" style="animation-delay:0.671s"/><rect class="c e" x="162" y="24" width="13" height="13" rx="2.5" fill="#161b22" style="animation-delay:0.521s"/><rect class="c e" x="162" y="40" width="13" height="13" rx="2.5" fill="#161b22" style="animation-delay:0.557s"/><rect class="c g" x="162" y="56" width="13" height="13" rx="2.5" fill="#0a3069" style="animation-delay:0.592s"/><rect class="c g" x="162" y="72" width="13" height="13" rx="2.5" fill="#0a3069" style="animation-delay:0.628s"/><rect class="c g" x="162" y="88" width="13" height="13" rx="2.5" fill="#0969da" style="animation-delay:0.664s"/><rect class="c g" x="162" y="104" width="13" height="13" rx="2.5" fill="#0a3069" style="animation-delay:0.7s"/><rect class="c g" x="162" y="120" width="13" height="13" rx="2.5" fill="#0a3069" style="animation-delay:0.736s"/><rect class="c g" x="178" y="24" width="13" height="13" rx="2.5" fill="#0a3069" style="animation-delay:0.586s"/><rect class="c e" x="178" y="40" width="13" height="13" rx="2.5" fill="#161b22" style="animation-delay:0.622s"/><rect class="c g" x="178" y="56" width="13" height="13" rx="2.5" fill="#0a3069" style="animation-delay:0.658s"/><rect class="c g" x="178" y="72" width="13" height="13" rx="2.5" fill="#0969da" style="animation-delay:0.693s"/><rect class="c g" x="178" y="88" width="13" height="13" rx="2.5" fill="#0a3069" style="animation-delay:0.729s"/><rect class="c e" x="178" y="104" width="13" height="13" rx="2.5" fill="#161b22" style="animation-delay:0.765s"/><rect class="c e" x="178" y="120" width="13" height="13" rx="2.5" fill="#161b22" style="animation-delay:0.801s"/><rect class="c e" x="194" y="24" width="13" height="13" rx="2.5" fill="#161b22" style="animation-delay:0.651s"/><rect class="c e" x="194" y="40" width="13" height="13" rx="2.5" fill="#161b22" style="animation-delay:0.687s"/><rect class="c e" x="194" y="56" width="13" height="13" rx="2.5" fill="#161b22" style="animation-delay:0.723s"/><rect class="c e" x="194" y="72" width="13" height="13" rx="2.5" fill="#161b22" style="animation-delay:0.758s"/><rect class="c g" x="194" y="88" width="13" height="13" rx="2.5" fill="#0a3069" style="animation-delay:0.794s"/><rect class="c g" x="194" y="104" width="13" height="13" rx="2.5" fill="#0a3069" style="animation-delay:0.83s"/><rect class="c e" x="194" y="120" width="13" height="13" rx="2.5" fill="#161b22" style="animation-delay:0.866s"/><rect class="c e" x="210" y="24" width="13" height="13" rx="2.5" fill="#161b22" style="animation-delay:0.716s"/><rect class="c g" x="210" y="40" width="13" height="13" rx="2.5" fill="#0a3069" style="animation-delay:0.752s"/><rect class="c e" x="210" y="56" width="13" height="13" rx="2.5" fill="#161b22" style="animation-delay:0.788s"/><rect class="c e" x="210" y="72" width="13" height="13" rx="2.5" fill="#161b22" style="animation-delay:0.824s"/><rect class="c g" x="210" y="88" width="13" height="13" rx="2.5" fill="#0a3069" style="animation-delay:0.859s"/><rect class="c e" x="210" y="104" width="13" height="13" rx="2.5" fill="#161b22" style="animation-delay:0.895s"/><rect class="c e" x="210" y="120" width="13" height="13" rx="2.5" fill="#161b22" style="animation-delay:0.931s"/><rect class="c e" x="226" y="24" width="13" height="13" rx="2.5" fill="#161b22" style="animation-delay:0.781s"/><rect class="c e" x="226" y="40" width="13" height="13" rx="2.5" fill="#161b22" style="animation-delay:0.817s"/><rect class="c e" x="226" y="56" width="13" height="13" rx="2.5" fill="#161b22" style="animation-delay:0.853s"/><rect class="c e" x="226" y="72" width="13" height="13" rx="2.5" fill="#161b22" style="animation-delay:0.889s"/><rect class="c e" x="226" y="88" width="13" height="13" rx="2.5" fill="#161b22" style="animation-delay:0.924s"/><rect class="c e" x="226" y="104" width="13" height="13" rx="2.5" fill="#161b22" style="animation-delay:0.96s"/><rect class="c e" x="226" y="120" width="13" height="13" rx="2.5" fill="#161b22" style="animation-delay:0.996s"/><rect class="c e" x="242" y="24" width="13" height="13" rx="2.5" fill="#161b22" style="animation-delay:0.846s"/><rect class="c e" x="242" y="40" width="13" height="13" rx="2.5" fill="#161b22" style="animation-delay:0.882s"/><rect class="c e" x="242" y="56" width="13" height="13" rx="2.5" fill="#161b22" style="animation-delay:0.918s"/><rect class="c e" x="242" y="72" width="13" height="13" rx="2.5" fill="#161b22" style="animation-delay:0.954s"/><rect class="c e" x="242" y="88" width="13" height="13" rx="2.5" fill="#161b22" style="animation-delay:0.99s"/><rect class="c e" x="242" y="104" width="13" height="13" rx="2.5" fill="#161b22" style="animation-delay:1.025s"/><rect class="c e" x="242" y="120" width="13" height="13" rx="2.5" fill="#161b22" style="animation-delay:1.061s"/><rect class="c e" x="258" y="24" width="13" height="13" rx="2.5" fill="#161b22" style="animation-delay:0.911s"/><rect class="c e" x="258" y="40" width="13" height="13" rx="2.5" fill="#161b22" style="animation-delay:0.947s"/><rect class="c e" x="258" y="56" width="13" height="13" rx="2.5" fill="#161b22" style="animation-delay:0.983s"/><rect class="c e" x="258" y="72" width="13" height="13" rx="2.5" fill="#161b22" style="animation-delay:1.019s"/><rect class="c g" x="258" y="88" width="13" height="13" rx="2.5" fill="#0a3069" style="animation-delay:1.055s"/><rect class="c e" x="258" y="104" width="13" height="13" rx="2.5" fill="#161b22" style="animation-delay:1.09s"/><rect class="c g" x="258" y="120" width="13" height="13" rx="2.5" fill="#2f81f7" style="animation-delay:1.126s"/><rect class="c g" x="274" y="24" width="13" height="13" rx="2.5" fill="#0969da" style="animation-delay:0.976s"/><rect class="c g" x="274" y="40" width="13" height="13" rx="2.5" fill="#0a3069" style="animation-delay:1.012s"/><rect class="c g" x="274" y="56" width="13" height="13" rx="2.5" fill="#0a3069" style="animation-delay:1.048s"/><rect class="c e" x="274" y="72" width="13" height="13" rx="2.5" fill="#161b22" style="animation-delay:1.084s"/><rect class="c e" x="274" y="88" width="13" height="13" rx="2.5" fill="#161b22" style="animation-delay:1.12s"/><rect class="c e" x="274" y="104" width="13" height="13" rx="2.5" fill="#161b22" style="animation-delay:1.156s"/><rect class="c g" x="274" y="120" width="13" height="13" rx="2.5" fill="#0969da" style="animation-delay:1.191s"/><rect class="c g" x="290" y="24" width="13" height="13" rx="2.5" fill="#0a3069" style="animation-delay:1.042s"/><rect class="c g" x="290" y="40" width="13" height="13" rx="2.5" fill="#0a3069" style="animation-delay:1.077s"/><rect class="c g" x="290" y="56" width="13" height="13" rx="2.5" fill="#0969da" style="animation-delay:1.113s"/><rect class="c e" x="290" y="72" width="13" height="13" rx="2.5" fill="#161b22" style="animation-delay:1.149s"/><rect class="c e" x="290" y="88" width="13" height="13" rx="2.5" fill="#161b22" style="animation-delay:1.185s"/><rect class="c e" x="290" y="104" width="13" height="13" rx="2.5" fill="#161b22" style="animation-delay:1.221s"/><rect class="c e" x="290" y="120" width="13" height="13" rx="2.5" fill="#161b22" style="animation-delay:1.256s"/><rect class="c e" x="306" y="24" width="13" height="13" rx="2.5" fill="#161b22" style="animation-delay:1.107s"/><rect class="c e" x="306" y="40" width="13" height="13" rx="2.5" fill="#161b22" style="animation-delay:1.142s"/><rect class="c g" x="306" y="56" width="13" height="13" rx="2.5" fill="#0a3069" style="animation-delay:1.178s"/><rect class="c e" x="306" y="72" width="13" height="13" rx="2.5" fill="#161b22" style="animation-delay:1.214s"/><rect class="c e" x="306" y="88" width="13" height="13" rx="2.5" fill="#161b22" style="animation-delay:1.25s"/><rect class="c e" x="306" y="104" width="13" height="13" rx="2.5" fill="#161b22" style="animation-delay:1.286s"/><rect class="c g" x="306" y="120" width="13" height="13" rx="2.5" fill="#0a3069" style="animation-delay:1.322s"/><rect class="c e" x="322" y="24" width="13" height="13" rx="2.5" fill="#161b22" style="animation-delay:1.172s"/><rect class="c g" x="322" y="40" width="13" height="13" rx="2.5" fill="#0a3069" style="animation-delay:1.208s"/><rect class="c e" x="322" y="56" width="13" height="13" rx="2.5" fill="#161b22" style="animation-delay:1.243s"/><rect class="c g" x="322" y="72" width="13" height="13" rx="2.5" fill="#0a3069" style="animation-delay:1.279s"/><rect class="c e" x="322" y="88" width="13" height="13" rx="2.5" fill="#161b22" style="animation-delay:1.315s"/><rect class="c e" x="322" y="104" width="13" height="13" rx="2.5" fill="#161b22" style="animation-delay:1.351s"/><rect class="c e" x="322" y="120" width="13" height="13" rx="2.5" fill="#161b22" style="animation-delay:1.387s"/><rect class="c g" x="338" y="24" width="13" height="13" rx="2.5" fill="#0a3069" style="animation-delay:1.237s"/><rect class="c g" x="338" y="40" width="13" height="13" rx="2.5" fill="#0a3069" style="animation-delay:1.273s"/><rect class="c e" x="338" y="56" width="13" height="13" rx="2.5" fill="#161b22" style="animation-delay:1.308s"/><rect class="c e" x="338" y="72" width="13" height="13" rx="2.5" fill="#161b22" style="animation-delay:1.344s"/><rect class="c g" x="338" y="88" width="13" height="13" rx="2.5" fill="#0a3069" style="animation-delay:1.38s"/><rect class="c g" x="338" y="104" width="13" height="13" rx="2.5" fill="#0a3069" style="animation-delay:1.416s"/><rect class="c g" x="338" y="120" width="13" height="13" rx="2.5" fill="#0a3069" style="animation-delay:1.452s"/><rect class="c g" x="354" y="24" width="13" height="13" rx="2.5" fill="#0a3069" style="animation-delay:1.302s"/><rect class="c g" x="354" y="40" width="13" height="13" rx="2.5" fill="#0a3069" style="animation-delay:1.338s"/><rect class="c g" x="354" y="56" width="13" height="13" rx="2.5" fill="#0a3069" style="animation-delay:1.374s"/><rect class="c g" x="354" y="72" width="13" height="13" rx="2.5" fill="#0a3069" style="animation-delay:1.409s"/><rect class="c g" x="354" y="88" width="13" height="13" rx="2.5" fill="#0a3069" style="animation-delay:1.445s"/><rect class="c g" x="354" y="104" width="13" height="13" rx="2.5" fill="#0a3069" style="animation-delay:1.481s"/><rect class="c g" x="354" y="120" width="13" height="13" rx="2.5" fill="#0a3069" style="animation-delay:1.517s"/><rect class="c g" x="370" y="24" width="13" height="13" rx="2.5" fill="#0a3069" style="animation-delay:1.367s"/><rect class="c e" x="370" y="40" width="13" height="13" rx="2.5" fill="#161b22" style="animation-delay:1.403s"/><rect class="c g" x="370" y="56" width="13" height="13" rx="2.5" fill="#0a3069" style="animation-delay:1.439s"/><rect class="c e" x="370" y="72" width="13" height="13" rx="2.5" fill="#161b22" style="animation-delay:1.475s"/><rect class="c e" x="370" y="88" width="13" height="13" rx="2.5" fill="#161b22" style="animation-delay:1.51s"/><rect class="c g" x="370" y="104" width="13" height="13" rx="2.5" fill="#0a3069" style="animation-delay:1.546s"/><rect class="c g" x="370" y="120" width="13" height="13" rx="2.5" fill="#2f81f7" style="animation-delay:1.582s"/><rect class="c g" x="386" y="24" width="13" height="13" rx="2.5" fill="#0969da" style="animation-delay:1.432s"/><rect class="c g" x="386" y="40" width="13" height="13" rx="2.5" fill="#0a3069" style="animation-delay:1.468s"/><rect class="c g" x="386" y="56" width="13" height="13" rx="2.5" fill="#0969da" style="animation-delay:1.504s"/><rect class="c g" x="386" y="72" width="13" height="13" rx="2.5" fill="#0a3069" style="animation-delay:1.54s"/><rect class="c g" x="386" y="88" width="13" height="13" rx="2.5" fill="#0a3069" style="animation-delay:1.575s"/><rect class="c e" x="386" y="104" width="13" height="13" rx="2.5" fill="#161b22" style="animation-delay:1.611s"/><rect class="c g" x="386" y="120" width="13" height="13" rx="2.5" fill="#0969da" style="animation-delay:1.647s"/><rect class="c g" x="402" y="24" width="13" height="13" rx="2.5" fill="#0a3069" style="animation-delay:1.497s"/><rect class="c e" x="402" y="40" width="13" height="13" rx="2.5" fill="#161b22" style="animation-delay:1.533s"/><rect class="c e" x="402" y="56" width="13" height="13" rx="2.5" fill="#161b22" style="animation-delay:1.569s"/><rect class="c g" x="402" y="72" width="13" height="13" rx="2.5" fill="#0a3069" style="animation-delay:1.605s"/><rect class="c g" x="402" y="88" width="13" height="13" rx="2.5" fill="#0a3069" style="animation-delay:1.641s"/><rect class="c g" x="402" y="104" width="13" height="13" rx="2.5" fill="#0a3069" style="animation-delay:1.676s"/><rect class="c g" x="402" y="120" width="13" height="13" rx="2.5" fill="#0a3069" style="animation-delay:1.712s"/><rect class="c g" x="418" y="24" width="13" height="13" rx="2.5" fill="#0a3069" style="animation-delay:1.562s"/><rect class="c e" x="418" y="40" width="13" height="13" rx="2.5" fill="#161b22" style="animation-delay:1.598s"/><rect class="c e" x="418" y="56" width="13" height="13" rx="2.5" fill="#161b22" style="animation-delay:1.634s"/><rect class="c g" x="418" y="72" width="13" height="13" rx="2.5" fill="#0a3069" style="animation-delay:1.67s"/><rect class="c e" x="418" y="88" width="13" height="13" rx="2.5" fill="#161b22" style="animation-delay:1.706s"/><rect class="c e" x="418" y="104" width="13" height="13" rx="2.5" fill="#161b22" style="animation-delay:1.741s"/><rect class="c e" x="418" y="120" width="13" height="13" rx="2.5" fill="#161b22" style="animation-delay:1.777s"/><rect class="c e" x="434" y="24" width="13" height="13" rx="2.5" fill="#161b22" style="animation-delay:1.627s"/><rect class="c e" x="434" y="40" width="13" height="13" rx="2.5" fill="#161b22" style="animation-delay:1.663s"/><rect class="c e" x="434" y="56" width="13" height="13" rx="2.5" fill="#161b22" style="animation-delay:1.699s"/><rect class="c e" x="434" y="72" width="13" height="13" rx="2.5" fill="#161b22" style="animation-delay:1.735s"/><rect class="c e" x="434" y="88" width="13" height="13" rx="2.5" fill="#161b22" style="animation-delay:1.771s"/><rect class="c e" x="434" y="104" width="13" height="13" rx="2.5" fill="#161b22" style="animation-delay:1.807s"/><rect class="c g" x="434" y="120" width="13" height="13" rx="2.5" fill="#0a3069" style="animation-delay:1.842s"/><rect class="c g" x="450" y="24" width="13" height="13" rx="2.5" fill="#0a3069" style="animation-delay:1.693s"/><rect class="c g" x="450" y="40" width="13" height="13" rx="2.5" fill="#0a3069" style="animation-delay:1.728s"/><rect class="c g" x="450" y="56" width="13" height="13" rx="2.5" fill="#0a3069" style="animation-delay:1.764s"/><rect class="c e" x="450" y="72" width="13" height="13" rx="2.5" fill="#161b22" style="animation-delay:1.8s"/><rect class="c e" x="450" y="88" width="13" height="13" rx="2.5" fill="#161b22" style="animation-delay:1.836s"/><rect class="c e" x="450" y="104" width="13" height="13" rx="2.5" fill="#161b22" style="animation-delay:1.872s"/><rect class="c e" x="450" y="120" width="13" height="13" rx="2.5" fill="#161b22" style="animation-delay:1.907s"/><rect class="c e" x="466" y="24" width="13" height="13" rx="2.5" fill="#161b22" style="animation-delay:1.758s"/><rect class="c e" x="466" y="40" width="13" height="13" rx="2.5" fill="#161b22" style="animation-delay:1.793s"/><rect class="c e" x="466" y="56" width="13" height="13" rx="2.5" fill="#161b22" style="animation-delay:1.829s"/><rect class="c g" x="466" y="72" width="13" height="13" rx="2.5" fill="#0a3069" style="animation-delay:1.865s"/><rect class="c g" x="466" y="88" width="13" height="13" rx="2.5" fill="#0969da" style="animation-delay:1.901s"/><rect class="c e" x="466" y="104" width="13" height="13" rx="2.5" fill="#161b22" style="animation-delay:1.937s"/><rect class="c g" x="466" y="120" width="13" height="13" rx="2.5" fill="#0a3069" style="animation-delay:1.973s"/><rect class="c e" x="482" y="24" width="13" height="13" rx="2.5" fill="#161b22" style="animation-delay:1.823s"/><rect class="c e" x="482" y="40" width="13" height="13" rx="2.5" fill="#161b22" style="animation-delay:1.859s"/><rect class="c e" x="482" y="56" width="13" height="13" rx="2.5" fill="#161b22" style="animation-delay:1.894s"/><rect class="c g" x="482" y="72" width="13" height="13" rx="2.5" fill="#0a3069" style="animation-delay:1.93s"/><rect class="c g" x="482" y="88" width="13" height="13" rx="2.5" fill="#0a3069" style="animation-delay:1.966s"/><rect class="c g" x="482" y="104" width="13" height="13" rx="2.5" fill="#0a3069" style="animation-delay:2.002s"/><rect class="c g" x="482" y="120" width="13" height="13" rx="2.5" fill="#0a3069" style="animation-delay:2.038s"/><rect class="c e" x="498" y="24" width="13" height="13" rx="2.5" fill="#161b22" style="animation-delay:1.888s"/><rect class="c g" x="498" y="40" width="13" height="13" rx="2.5" fill="#0a3069" style="animation-delay:1.924s"/><rect class="c g" x="498" y="56" width="13" height="13" rx="2.5" fill="#0a3069" style="animation-delay:1.959s"/><rect class="c g" x="498" y="72" width="13" height="13" rx="2.5" fill="#0a3069" style="animation-delay:1.995s"/><rect class="c g" x="498" y="88" width="13" height="13" rx="2.5" fill="#0a3069" style="animation-delay:2.031s"/><rect class="c g" x="498" y="104" width="13" height="13" rx="2.5" fill="#0a3069" style="animation-delay:2.067s"/><rect class="c g" x="498" y="120" width="13" height="13" rx="2.5" fill="#0a3069" style="animation-delay:2.103s"/><rect class="c g" x="514" y="24" width="13" height="13" rx="2.5" fill="#2f81f7" style="animation-delay:1.953s"/><rect class="c g" x="514" y="40" width="13" height="13" rx="2.5" fill="#0a3069" style="animation-delay:1.989s"/><rect class="c e" x="514" y="56" width="13" height="13" rx="2.5" fill="#161b22" style="animation-delay:2.025s"/><rect class="c e" x="514" y="72" width="13" height="13" rx="2.5" fill="#161b22" style="animation-delay:2.06s"/><rect class="c e" x="514" y="88" width="13" height="13" rx="2.5" fill="#161b22" style="animation-delay:2.096s"/><rect class="c e" x="514" y="104" width="13" height="13" rx="2.5" fill="#161b22" style="animation-delay:2.132s"/><rect class="c e" x="514" y="120" width="13" height="13" rx="2.5" fill="#161b22" style="animation-delay:2.168s"/><rect class="c e" x="530" y="24" width="13" height="13" rx="2.5" fill="#161b22" style="animation-delay:2.018s"/><rect class="c e" x="530" y="40" width="13" height="13" rx="2.5" fill="#161b22" style="animation-delay:2.054s"/><rect class="c g" x="530" y="56" width="13" height="13" rx="2.5" fill="#0a3069" style="animation-delay:2.09s"/><rect class="c g" x="530" y="72" width="13" height="13" rx="2.5" fill="#0a3069" style="animation-delay:2.125s"/><rect class="c e" x="530" y="88" width="13" height="13" rx="2.5" fill="#161b22" style="animation-delay:2.161s"/><rect class="c e" x="530" y="104" width="13" height="13" rx="2.5" fill="#161b22" style="animation-delay:2.197s"/><rect class="c e" x="530" y="120" width="13" height="13" rx="2.5" fill="#161b22" style="animation-delay:2.233s"/><rect class="c e" x="546" y="24" width="13" height="13" rx="2.5" fill="#161b22" style="animation-delay:2.083s"/><rect class="c g" x="546" y="40" width="13" height="13" rx="2.5" fill="#0a3069" style="animation-delay:2.119s"/><rect class="c g" x="546" y="56" width="13" height="13" rx="2.5" fill="#0a3069" style="animation-delay:2.155s"/><rect class="c g" x="546" y="72" width="13" height="13" rx="2.5" fill="#0969da" style="animation-delay:2.191s"/><rect class="c g" x="546" y="88" width="13" height="13" rx="2.5" fill="#0a3069" style="animation-delay:2.226s"/><rect class="c g" x="546" y="104" width="13" height="13" rx="2.5" fill="#0a3069" style="animation-delay:2.262s"/><rect class="c e" x="546" y="120" width="13" height="13" rx="2.5" fill="#161b22" style="animation-delay:2.298s"/><rect class="c e" x="562" y="24" width="13" height="13" rx="2.5" fill="#161b22" style="animation-delay:2.148s"/><rect class="c g" x="562" y="40" width="13" height="13" rx="2.5" fill="#0a3069" style="animation-delay:2.184s"/><rect class="c g" x="562" y="56" width="13" height="13" rx="2.5" fill="#0a3069" style="animation-delay:2.22s"/><rect class="c e" x="562" y="72" width="13" height="13" rx="2.5" fill="#161b22" style="animation-delay:2.256s"/><rect class="c e" x="562" y="88" width="13" height="13" rx="2.5" fill="#161b22" style="animation-delay:2.292s"/><rect class="c e" x="562" y="104" width="13" height="13" rx="2.5" fill="#161b22" style="animation-delay:2.327s"/><rect class="c e" x="562" y="120" width="13" height="13" rx="2.5" fill="#161b22" style="animation-delay:2.363s"/><rect class="c e" x="578" y="24" width="13" height="13" rx="2.5" fill="#161b22" style="animation-delay:2.213s"/><rect class="c g" x="578" y="40" width="13" height="13" rx="2.5" fill="#0a3069" style="animation-delay:2.249s"/><rect class="c e" x="578" y="56" width="13" height="13" rx="2.5" fill="#161b22" style="animation-delay:2.285s"/><rect class="c g" x="578" y="72" width="13" height="13" rx="2.5" fill="#0a3069" style="animation-delay:2.321s"/><rect class="c e" x="578" y="88" width="13" height="13" rx="2.5" fill="#161b22" style="animation-delay:2.357s"/><rect class="c g" x="578" y="104" width="13" height="13" rx="2.5" fill="#0a3069" style="animation-delay:2.392s"/><rect class="c g" x="578" y="120" width="13" height="13" rx="2.5" fill="#0a3069" style="animation-delay:2.428s"/><rect class="c g" x="594" y="24" width="13" height="13" rx="2.5" fill="#0a3069" style="animation-delay:2.278s"/><rect class="c g" x="594" y="40" width="13" height="13" rx="2.5" fill="#0a3069" style="animation-delay:2.314s"/><rect class="c g" x="594" y="56" width="13" height="13" rx="2.5" fill="#0a3069" style="animation-delay:2.35s"/><rect class="c g" x="594" y="72" width="13" height="13" rx="2.5" fill="#0a3069" style="animation-delay:2.386s"/><rect class="c g" x="594" y="88" width="13" height="13" rx="2.5" fill="#0a3069" style="animation-delay:2.422s"/><rect class="c e" x="594" y="104" width="13" height="13" rx="2.5" fill="#161b22" style="animation-delay:2.458s"/><rect class="c g" x="594" y="120" width="13" height="13" rx="2.5" fill="#0969da" style="animation-delay:2.493s"/><rect class="c g" x="610" y="24" width="13" height="13" rx="2.5" fill="#0a3069" style="animation-delay:2.344s"/><rect class="c g" x="610" y="40" width="13" height="13" rx="2.5" fill="#0a3069" style="animation-delay:2.379s"/><rect class="c g" x="610" y="56" width="13" height="13" rx="2.5" fill="#0969da" style="animation-delay:2.415s"/><rect class="c g" x="610" y="72" width="13" height="13" rx="2.5" fill="#0a3069" style="animation-delay:2.451s"/><rect class="c g" x="610" y="88" width="13" height="13" rx="2.5" fill="#0a3069" style="animation-delay:2.487s"/><rect class="c e" x="610" y="104" width="13" height="13" rx="2.5" fill="#161b22" style="animation-delay:2.523s"/><rect class="c e" x="610" y="120" width="13" height="13" rx="2.5" fill="#161b22" style="animation-delay:2.558s"/><rect class="c e" x="626" y="24" width="13" height="13" rx="2.5" fill="#161b22" style="animation-delay:2.409s"/><rect class="c e" x="626" y="40" width="13" height="13" rx="2.5" fill="#161b22" style="animation-delay:2.444s"/><rect class="c g" x="626" y="56" width="13" height="13" rx="2.5" fill="#0a3069" style="animation-delay:2.48s"/><rect class="c g" x="626" y="72" width="13" height="13" rx="2.5" fill="#0a3069" style="animation-delay:2.516s"/><rect class="c e" x="626" y="88" width="13" height="13" rx="2.5" fill="#161b22" style="animation-delay:2.552s"/><rect class="c g" x="626" y="104" width="13" height="13" rx="2.5" fill="#0a3069" style="animation-delay:2.588s"/><rect class="c g" x="626" y="120" width="13" height="13" rx="2.5" fill="#0a3069" style="animation-delay:2.624s"/><rect class="c g" x="642" y="24" width="13" height="13" rx="2.5" fill="#0a3069" style="animation-delay:2.474s"/><rect class="c g" x="642" y="40" width="13" height="13" rx="2.5" fill="#0a3069" style="animation-delay:2.51s"/><rect class="c g" x="642" y="56" width="13" height="13" rx="2.5" fill="#0a3069" style="animation-delay:2.545s"/><rect class="c g" x="642" y="72" width="13" height="13" rx="2.5" fill="#0a3069" style="animation-delay:2.581s"/><rect class="c e" x="642" y="88" width="13" height="13" rx="2.5" fill="#161b22" style="animation-delay:2.617s"/><rect class="c g" x="642" y="104" width="13" height="13" rx="2.5" fill="#0a3069" style="animation-delay:2.653s"/><rect class="c g" x="642" y="120" width="13" height="13" rx="2.5" fill="#0a3069" style="animation-delay:2.689s"/><rect class="c g" x="658" y="24" width="13" height="13" rx="2.5" fill="#0a3069" style="animation-delay:2.539s"/><rect class="c g" x="658" y="40" width="13" height="13" rx="2.5" fill="#0a3069" style="animation-delay:2.575s"/><rect class="c g" x="658" y="56" width="13" height="13" rx="2.5" fill="#0a3069" style="animation-delay:2.61s"/><rect class="c g" x="658" y="72" width="13" height="13" rx="2.5" fill="#0969da" style="animation-delay:2.646s"/><rect class="c g" x="658" y="88" width="13" height="13" rx="2.5" fill="#0969da" style="animation-delay:2.682s"/><rect class="c g" x="658" y="104" width="13" height="13" rx="2.5" fill="#0a3069" style="animation-delay:2.718s"/><rect class="c e" x="658" y="120" width="13" height="13" rx="2.5" fill="#161b22" style="animation-delay:2.754s"/><rect class="c e" x="674" y="24" width="13" height="13" rx="2.5" fill="#161b22" style="animation-delay:2.604s"/><rect class="c e" x="674" y="40" width="13" height="13" rx="2.5" fill="#161b22" style="animation-delay:2.64s"/><rect class="c g" x="674" y="56" width="13" height="13" rx="2.5" fill="#0a3069" style="animation-delay:2.676s"/><rect class="c e" x="674" y="72" width="13" height="13" rx="2.5" fill="#161b22" style="animation-delay:2.711s"/><rect class="c g" x="674" y="88" width="13" height="13" rx="2.5" fill="#0a3069" style="animation-delay:2.747s"/><rect class="c e" x="674" y="104" width="13" height="13" rx="2.5" fill="#161b22" style="animation-delay:2.783s"/><rect class="c g" x="674" y="120" width="13" height="13" rx="2.5" fill="#0a3069" style="animation-delay:2.819s"/><rect class="c e" x="690" y="24" width="13" height="13" rx="2.5" fill="#161b22" style="animation-delay:2.669s"/><rect class="c e" x="690" y="40" width="13" height="13" rx="2.5" fill="#161b22" style="animation-delay:2.705s"/><rect class="c e" x="690" y="56" width="13" height="13" rx="2.5" fill="#161b22" style="animation-delay:2.741s"/><rect class="c g" x="690" y="72" width="13" height="13" rx="2.5" fill="#0a3069" style="animation-delay:2.776s"/><rect class="c g" x="690" y="88" width="13" height="13" rx="2.5" fill="#0969da" style="animation-delay:2.812s"/><rect class="c g" x="690" y="104" width="13" height="13" rx="2.5" fill="#0969da" style="animation-delay:2.848s"/><rect class="c g" x="690" y="120" width="13" height="13" rx="2.5" fill="#58a6ff" style="animation-delay:2.884s"/><rect class="c e" x="706" y="24" width="13" height="13" rx="2.5" fill="#161b22" style="animation-delay:2.734s"/><rect class="c g" x="706" y="40" width="13" height="13" rx="2.5" fill="#2f81f7" style="animation-delay:2.77s"/><rect class="c e" x="706" y="56" width="13" height="13" rx="2.5" fill="#161b22" style="animation-delay:2.806s"/><rect class="c g" x="706" y="72" width="13" height="13" rx="2.5" fill="#58a6ff" style="animation-delay:2.842s"/><rect class="c e" x="706" y="88" width="13" height="13" rx="2.5" fill="#161b22" style="animation-delay:2.877s"/><rect class="c g" x="706" y="104" width="13" height="13" rx="2.5" fill="#0a3069" style="animation-delay:2.913s"/><rect class="c e" x="706" y="120" width="13" height="13" rx="2.5" fill="#161b22" style="animation-delay:2.949s"/><rect class="c g" x="722" y="24" width="13" height="13" rx="2.5" fill="#0a3069" style="animation-delay:2.799s"/><rect class="c g" x="722" y="40" width="13" height="13" rx="2.5" fill="#0a3069" style="animation-delay:2.835s"/><rect class="c g" x="722" y="56" width="13" height="13" rx="2.5" fill="#0a3069" style="animation-delay:2.871s"/><rect class="c g" x="722" y="72" width="13" height="13" rx="2.5" fill="#0a3069" style="animation-delay:2.907s"/><rect class="c g" x="722" y="88" width="13" height="13" rx="2.5" fill="#0969da" style="animation-delay:2.942s"/><rect class="c e" x="722" y="104" width="13" height="13" rx="2.5" fill="#161b22" style="animation-delay:2.978s"/><rect class="c e" x="722" y="120" width="13" height="13" rx="2.5" fill="#161b22" style="animation-delay:3.014s"/><rect class="c e" x="738" y="24" width="13" height="13" rx="2.5" fill="#161b22" style="animation-delay:2.864s"/><rect class="c e" x="738" y="40" width="13" height="13" rx="2.5" fill="#161b22" style="animation-delay:2.9s"/><rect class="c e" x="738" y="56" width="13" height="13" rx="2.5" fill="#161b22" style="animation-delay:2.936s"/><rect class="c e" x="738" y="72" width="13" height="13" rx="2.5" fill="#161b22" style="animation-delay:2.972s"/><rect class="c g" x="738" y="88" width="13" height="13" rx="2.5" fill="#0969da" style="animation-delay:3.008s"/><rect class="c g" x="738" y="104" width="13" height="13" rx="2.5" fill="#0969da" style="animation-delay:3.043s"/><rect class="c g" x="738" y="120" width="13" height="13" rx="2.5" fill="#0a3069" style="animation-delay:3.079s"/><rect class="c e" x="754" y="24" width="13" height="13" rx="2.5" fill="#161b22" style="animation-delay:2.929s"/><rect class="c g" x="754" y="40" width="13" height="13" rx="2.5" fill="#58a6ff" style="animation-delay:2.965s"/><rect class="c g" x="754" y="56" width="13" height="13" rx="2.5" fill="#58a6ff" style="animation-delay:3.001s"/><rect class="c g" x="754" y="72" width="13" height="13" rx="2.5" fill="#2f81f7" style="animation-delay:3.037s"/><rect class="c g" x="754" y="88" width="13" height="13" rx="2.5" fill="#0a3069" style="animation-delay:3.073s"/><rect class="c g" x="754" y="104" width="13" height="13" rx="2.5" fill="#0969da" style="animation-delay:3.108s"/><rect class="c g" x="754" y="120" width="13" height="13" rx="2.5" fill="#0a3069" style="animation-delay:3.144s"/><rect class="c e" x="770" y="24" width="13" height="13" rx="2.5" fill="#161b22" style="animation-delay:2.995s"/><rect class="c e" x="770" y="40" width="13" height="13" rx="2.5" fill="#161b22" style="animation-delay:3.03s"/><rect class="c g" x="770" y="56" width="13" height="13" rx="2.5" fill="#0a3069" style="animation-delay:3.066s"/><rect class="c e" x="770" y="72" width="13" height="13" rx="2.5" fill="#161b22" style="animation-delay:3.102s"/><rect class="c e" x="770" y="88" width="13" height="13" rx="2.5" fill="#161b22" style="animation-delay:3.138s"/><rect class="c e" x="770" y="104" width="13" height="13" rx="2.5" fill="#161b22" style="animation-delay:3.174s"/><rect class="c e" x="770" y="120" width="13" height="13" rx="2.5" fill="#161b22" style="animation-delay:3.209s"/><rect class="c e" x="786" y="24" width="13" height="13" rx="2.5" fill="#161b22" style="animation-delay:3.06s"/><rect class="c e" x="786" y="40" width="13" height="13" rx="2.5" fill="#161b22" style="animation-delay:3.095s"/><rect class="c e" x="786" y="56" width="13" height="13" rx="2.5" fill="#161b22" style="animation-delay:3.131s"/><rect class="c g" x="786" y="72" width="13" height="13" rx="2.5" fill="#0a3069" style="animation-delay:3.167s"/><rect class="c e" x="786" y="88" width="13" height="13" rx="2.5" fill="#161b22" style="animation-delay:3.203s"/><rect class="c e" x="786" y="104" width="13" height="13" rx="2.5" fill="#161b22" style="animation-delay:3.239s"/><rect class="c e" x="786" y="120" width="13" height="13" rx="2.5" fill="#161b22" style="animation-delay:3.275s"/><rect class="c e" x="802" y="24" width="13" height="13" rx="2.5" fill="#161b22" style="animation-delay:3.125s"/><rect class="c e" x="802" y="40" width="13" height="13" rx="2.5" fill="#161b22" style="animation-delay:3.161s"/><rect class="c e" x="802" y="56" width="13" height="13" rx="2.5" fill="#161b22" style="animation-delay:3.196s"/><rect class="c e" x="802" y="72" width="13" height="13" rx="2.5" fill="#161b22" style="animation-delay:3.232s"/><rect class="c g" x="802" y="88" width="13" height="13" rx="2.5" fill="#0a3069" style="animation-delay:3.268s"/><rect class="c g" x="802" y="104" width="13" height="13" rx="2.5" fill="#0a3069" style="animation-delay:3.304s"/><rect class="c g" x="802" y="120" width="13" height="13" rx="2.5" fill="#0969da" style="animation-delay:3.34s"/><rect class="c g" x="818" y="24" width="13" height="13" rx="2.5" fill="#0a3069" style="animation-delay:3.19s"/><rect class="c g" x="818" y="40" width="13" height="13" rx="2.5" fill="#0a3069" style="animation-delay:3.226s"/><rect class="c g" x="818" y="56" width="13" height="13" rx="2.5" fill="#0a3069" style="animation-delay:3.261s"/><rect class="c e" x="818" y="72" width="13" height="13" rx="2.5" fill="#161b22" style="animation-delay:3.297s"/><rect class="c e" x="818" y="88" width="13" height="13" rx="2.5" fill="#161b22" style="animation-delay:3.333s"/><rect class="c g" x="818" y="104" width="13" height="13" rx="2.5" fill="#0a3069" style="animation-delay:3.369s"/><rect class="c e" x="818" y="120" width="13" height="13" rx="2.5" fill="#161b22" style="animation-delay:3.405s"/><rect class="c e" x="834" y="24" width="13" height="13" rx="2.5" fill="#161b22" style="animation-delay:3.255s"/><rect class="c e" x="834" y="40" width="13" height="13" rx="2.5" fill="#161b22" style="animation-delay:3.291s"/><rect class="c e" x="834" y="56" width="13" height="13" rx="2.5" fill="#161b22" style="animation-delay:3.327s"/><rect class="c e" x="834" y="72" width="13" height="13" rx="2.5" fill="#161b22" style="animation-delay:3.362s"/><rect class="c e" x="834" y="88" width="13" height="13" rx="2.5" fill="#161b22" style="animation-delay:3.398s"/><rect class="c e" x="834" y="104" width="13" height="13" rx="2.5" fill="#161b22" style="animation-delay:3.434s"/><rect class="c e" x="834" y="120" width="13" height="13" rx="2.5" fill="#161b22" style="animation-delay:3.47s"/><rect class="c g" x="850" y="24" width="13" height="13" rx="2.5" fill="#0a3069" style="animation-delay:3.32s"/><rect class="c e" x="850" y="40" width="13" height="13" rx="2.5" fill="#161b22" style="animation-delay:3.356s"/><rect class="c g" x="850" y="56" width="13" height="13" rx="2.5" fill="#0969da" style="animation-delay:3.392s"/><rect class="c g" x="850" y="72" width="13" height="13" rx="2.5" fill="#0a3069" style="animation-delay:3.427s"/><rect class="c g" x="850" y="88" width="13" height="13" rx="2.5" fill="#0a3069" style="animation-delay:3.463s"/><rect class="c g" x="850" y="104" width="13" height="13" rx="2.5" fill="#0a3069" style="animation-delay:3.499s"/><rect class="c g" x="850" y="120" width="13" height="13" rx="2.5" fill="#0a3069" style="animation-delay:3.535s"/><rect class="c g" x="866" y="24" width="13" height="13" rx="2.5" fill="#0a3069" style="animation-delay:3.385s"/><rect class="c g" x="866" y="40" width="13" height="13" rx="2.5" fill="#0a3069" style="animation-delay:3.421s"/><rect class="c g" x="866" y="56" width="13" height="13" rx="2.5" fill="#0a3069" style="animation-delay:3.457s"/><rect class="c g" x="866" y="72" width="13" height="13" rx="2.5" fill="#0a3069" style="animation-delay:3.493s"/><rect class="c e" x="866" y="88" width="13" height="13" rx="2.5" fill="#161b22" style="animation-delay:3.528s"/>
<text class="total" x="34" y="152">1,257 contributions in the last year</text>
</svg>